<svg xmlns="http://www.w3.org/2000/svg" xmlns:xlink="http://www.w3.org/1999/xlink" viewBox="0 0 261.08 231.94"><defs><style>.a,.c,.d,.e,.g,.i{fill:none;}.b{clip-path:url(#a);}.c,.d,.e,.g,.i{stroke:#000;}.c{stroke-miterlimit:10;stroke-width:1.01px;}.d,.e,.g,.i{stroke-linecap:round;stroke-linejoin:round;}.d{stroke-width:0.73px;}.e{stroke-width:1.21px;}.f{fill-rule:evenodd;}.g{stroke-width:1.52px;}.h{fill:#fff;}.i{stroke-width:0.24px;}</style><clipPath id="a" transform="translate(-176.03 -264.75)"><rect class="a" x="176" y="264.7" width="261.08" height="232"/></clipPath></defs><title>lm317</title><g class="b"><line class="c" x1="110.34" y1="101.66" x2="116.02" y2="101.66"/><polygon class="d" points="105.79 110.75 105.79 74.39 142.15 92.57 105.79 110.75"/><path d="M288.33,350.37v-2h-2v-0.83h2v-2h0.84v2h2v0.83h-2v2h-0.84Z" transform="translate(-176.03 -264.75)"/><line class="d" x1="178.51" y1="92.57" x2="187.6" y2="92.57"/><line class="d" x1="187.6" y1="98.25" x2="208.05" y2="106.21"/><line class="e" x1="187.6" y1="83.48" x2="187.6" y2="101.66"/><polyline class="f" points="193.85 103.25 196.18 98.25 201.24 103.29 193.85 103.25"/><polygon class="d" points="193.85 103.25 196.18 98.25 201.24 103.29 193.85 103.25"/><line class="d" x1="208.05" y1="106.21" x2="214.87" y2="106.21"/><line class="d" x1="187.6" y1="85.76" x2="205.78" y2="78.94"/><line class="d" x1="242.14" y1="78.94" x2="205.78" y2="78.94"/><line class="d" x1="214.87" y1="106.21" x2="223.96" y2="106.21"/><line class="d" x1="223.96" y1="111.89" x2="242.14" y2="118.7"/><line class="e" x1="223.96" y1="97.12" x2="223.96" y2="115.3"/><polyline class="f" points="230.21 116.89 232.54 111.89 237.6 116.93 230.21 116.89"/><polygon class="d" points="230.21 116.89 232.54 111.89 237.6 116.93 230.21 116.89"/><line class="d" x1="242.14" y1="118.7" x2="242.14" y2="128.93"/><line class="d" x1="223.96" y1="99.39" x2="242.14" y2="92.57"/><line class="d" x1="242.14" y1="78.94" x2="242.14" y2="92.57"/><polyline class="f" points="55.8 126.66 50.12 126.66 55.8 115.3 61.48 126.66 55.8 126.66"/><polygon class="d" points="55.8 126.66 50.12 126.66 55.8 115.3 61.48 126.66 55.8 126.66"/><line class="d" x1="55.8" y1="138.02" x2="55.8" y2="101.66"/><polyline class="d" points="46.71 111.89 49.74 115.3 61.86 115.3 64.89 118.7"/><rect class="g" x="133.82" y="116.73" width="67.42" height="42.58"/><path d="M317,391.42a3.54,3.54,0,0,1,.87-2.54,3,3,0,0,1,2.25-.92,3.11,3.11,0,0,1,1.63.43,2.81,2.81,0,0,1,1.1,1.2,3.9,3.9,0,0,1,.38,1.75,3.83,3.83,0,0,1-.4,1.77,2.73,2.73,0,0,1-1.13,1.18,3.24,3.24,0,0,1-1.58.4,3.08,3.08,0,0,1-1.64-.44,2.85,2.85,0,0,1-1.1-1.21A3.67,3.67,0,0,1,317,391.42Zm0.89,0a2.61,2.61,0,0,0,.63,1.85,2.21,2.21,0,0,0,3.19,0,2.76,2.76,0,0,0,.63-1.94A3.34,3.34,0,0,0,322,390a2.07,2.07,0,0,0-.79-0.92,2.13,2.13,0,0,0-1.16-.33,2.2,2.2,0,0,0-1.57.63A2.81,2.81,0,0,0,317.86,391.43Z" transform="translate(-176.03 -264.75)"/><path d="M325.51,394.59l-1.79-4.71h0.84l1,2.82q0.16,0.46.3,0.95,0.11-.37.3-0.9l1-2.88H328l-1.78,4.71h-0.75Z" transform="translate(-176.03 -264.75)"/><path d="M332,393.07l0.83,0.1a2,2,0,0,1-.72,1.12,2.45,2.45,0,0,1-3-.24,2.49,2.49,0,0,1-.61-1.79,2.6,2.6,0,0,1,.61-1.85,2.07,2.07,0,0,1,1.59-.66,2,2,0,0,1,1.54.64,2.56,2.56,0,0,1,.6,1.81s0,0.12,0,.21h-3.52a1.81,1.81,0,0,0,.44,1.19,1.31,1.31,0,0,0,1,.41,1.22,1.22,0,0,0,.75-0.23A1.54,1.54,0,0,0,332,393.07Zm-2.62-1.29H332a1.61,1.61,0,0,0-.3-0.89,1.23,1.23,0,0,0-1-.46,1.27,1.27,0,0,0-.92.37A1.46,1.46,0,0,0,329.35,391.78Z" transform="translate(-176.03 -264.75)"/><path d="M333.8,394.59v-4.71h0.72v0.71a2,2,0,0,1,.51-0.66,0.88,0.88,0,0,1,.51-0.16,1.56,1.56,0,0,1,.82.26l-0.28.74a1.14,1.14,0,0,0-.59-0.17,0.76,0.76,0,0,0-.47.16,0.85,0.85,0,0,0-.3.44,3.11,3.11,0,0,0-.13.93v2.47h-0.8Z" transform="translate(-176.03 -264.75)"/><path d="M340.94,394.59v-5.74H338.8v-0.77H344v0.77h-2.15v5.74h-0.86Z" transform="translate(-176.03 -264.75)"/><path d="M347,393.07l0.83,0.1a2,2,0,0,1-.72,1.12,2.45,2.45,0,0,1-3-.24,2.49,2.49,0,0,1-.61-1.79,2.6,2.6,0,0,1,.61-1.85,2.07,2.07,0,0,1,1.59-.66,2,2,0,0,1,1.54.64,2.56,2.56,0,0,1,.6,1.81s0,0.12,0,.21H344.3a1.81,1.81,0,0,0,.44,1.19,1.31,1.31,0,0,0,1,.41,1.22,1.22,0,0,0,.75-0.23A1.54,1.54,0,0,0,347,393.07Zm-2.62-1.29H347a1.61,1.61,0,0,0-.3-0.89,1.23,1.23,0,0,0-1-.46,1.27,1.27,0,0,0-.92.37A1.46,1.46,0,0,0,344.34,391.78Z" transform="translate(-176.03 -264.75)"/><path d="M348.8,394.59v-4.71h0.71v0.66a1.68,1.68,0,0,1,.59-0.56,1.66,1.66,0,0,1,.84-0.21,1.55,1.55,0,0,1,.86.22,1.16,1.16,0,0,1,.47.61,1.69,1.69,0,0,1,1.46-.83,1.43,1.43,0,0,1,1.08.39,1.66,1.66,0,0,1,.38,1.2v3.24h-0.79v-3a2.19,2.19,0,0,0-.08-0.69,0.67,0.67,0,0,0-.28-0.34,0.88,0.88,0,0,0-.48-0.13,1.11,1.11,0,0,0-.83.33,1.46,1.46,0,0,0-.33,1.06v2.74h-0.8v-3.06a1.34,1.34,0,0,0-.2-0.8,0.74,0.74,0,0,0-.64-0.27,1.17,1.17,0,0,0-.62.18,1,1,0,0,0-.42.52,3,3,0,0,0-.13,1v2.45h-0.8Z" transform="translate(-176.03 -264.75)"/><path d="M356.37,396.4v-6.52h0.73v0.61a1.79,1.79,0,0,1,.58-0.54,1.6,1.6,0,0,1,.79-0.18,1.87,1.87,0,0,1,1.07.31,1.91,1.91,0,0,1,.7.88,3.19,3.19,0,0,1,.24,1.24,3.15,3.15,0,0,1-.26,1.3,2,2,0,0,1-.75.89,1.93,1.93,0,0,1-1,.31,1.5,1.5,0,0,1-.72-0.17,1.62,1.62,0,0,1-.52-0.43v2.29h-0.8Zm0.72-4.14a2,2,0,0,0,.37,1.34,1.13,1.13,0,0,0,.89.44,1.15,1.15,0,0,0,.91-0.45,2.14,2.14,0,0,0,.38-1.4,2.08,2.08,0,0,0-.37-1.35,1.12,1.12,0,0,0-.88-0.45,1.15,1.15,0,0,0-.9.48A2.13,2.13,0,0,0,357.09,392.26Z" transform="translate(-176.03 -264.75)"/><path d="M367.67,393.82a2.71,2.71,0,0,1-.86.66,2.33,2.33,0,0,1-1,.22,2,2,0,0,1-1.58-.67,1.84,1.84,0,0,1-.47-1.23,1.7,1.7,0,0,1,.39-1.09,3.24,3.24,0,0,1,1.16-.85,3.89,3.89,0,0,1-.59-0.82,1.44,1.44,0,0,1-.15-0.61,1.35,1.35,0,0,1,.46-1,1.62,1.62,0,0,1,1.16-.43,1.5,1.5,0,0,1,1.09.41,1.31,1.31,0,0,1,.42,1,1.88,1.88,0,0,1-1.23,1.58l1.17,1.49a3.71,3.71,0,0,0,.31-0.91l0.83,0.18a4.55,4.55,0,0,1-.58,1.4,4.63,4.63,0,0,0,1,1l-0.54.63A4.66,4.66,0,0,1,367.67,393.82Zm-0.5-.63-1.46-1.82a2.81,2.81,0,0,0-.87.72,1.16,1.16,0,0,0-.23.65,1.39,1.39,0,0,0,.31.82,1,1,0,0,0,.89.43,1.47,1.47,0,0,0,.74-0.22A1.81,1.81,0,0,0,367.17,393.19ZM366,390.43a2.12,2.12,0,0,0,.67-0.54,0.9,0.9,0,0,0,.15-0.51,0.74,0.74,0,0,0-.21-0.54,0.71,0.71,0,0,0-.53-0.21,0.74,0.74,0,0,0-.54.21,0.68,0.68,0,0,0-.21.51,0.75,0.75,0,0,0,.08.32,1.65,1.65,0,0,0,.23.35Z" transform="translate(-176.03 -264.75)"/><path d="M317.73,402.33a3.54,3.54,0,0,1,.87-2.54,3,3,0,0,1,2.25-.92,3.11,3.11,0,0,1,1.63.43,2.81,2.81,0,0,1,1.1,1.2,3.9,3.9,0,0,1,.38,1.75,3.83,3.83,0,0,1-.4,1.77,2.73,2.73,0,0,1-1.13,1.18,3.23,3.23,0,0,1-1.58.4,3.08,3.08,0,0,1-1.64-.44,2.85,2.85,0,0,1-1.1-1.21A3.66,3.66,0,0,1,317.73,402.33Zm0.89,0a2.6,2.6,0,0,0,.63,1.85,2.21,2.21,0,0,0,3.19,0,2.76,2.76,0,0,0,.63-1.94,3.34,3.34,0,0,0-.27-1.39,2.07,2.07,0,0,0-.79-0.92,2.13,2.13,0,0,0-1.16-.33,2.2,2.2,0,0,0-1.57.63A2.81,2.81,0,0,0,318.62,402.34Z" transform="translate(-176.03 -264.75)"/><path d="M326.27,405.5l-1.79-4.71h0.84l1,2.82q0.16,0.46.3,0.95,0.11-.37.3-0.9l1-2.88h0.82L327,405.5h-0.75Z" transform="translate(-176.03 -264.75)"/><path d="M332.73,404l0.83,0.1a2,2,0,0,1-.72,1.12,2.45,2.45,0,0,1-3-.24,2.49,2.49,0,0,1-.61-1.79,2.61,2.61,0,0,1,.61-1.85,2.07,2.07,0,0,1,1.59-.66,2,2,0,0,1,1.54.64,2.56,2.56,0,0,1,.6,1.81s0,0.12,0,.21h-3.52a1.81,1.81,0,0,0,.44,1.19,1.31,1.31,0,0,0,1,.41,1.22,1.22,0,0,0,.75-0.23A1.54,1.54,0,0,0,332.73,404Zm-2.62-1.29h2.63a1.6,1.6,0,0,0-.3-0.89,1.22,1.22,0,0,0-1-.46,1.27,1.27,0,0,0-.92.37A1.46,1.46,0,0,0,330.11,402.69Z" transform="translate(-176.03 -264.75)"/><path d="M334.55,405.5v-4.71h0.72v0.71a2,2,0,0,1,.51-0.66,0.89,0.89,0,0,1,.51-0.16,1.56,1.56,0,0,1,.82.26l-0.28.74a1.14,1.14,0,0,0-.59-0.17,0.76,0.76,0,0,0-.47.16,0.85,0.85,0,0,0-.3.44,3.1,3.1,0,0,0-.13.93v2.47h-0.8Z" transform="translate(-176.03 -264.75)"/><path d="M344.85,403.22l0.86,0.22a2.9,2.9,0,0,1-1,1.62,2.68,2.68,0,0,1-1.72.56,3.09,3.09,0,0,1-1.71-.43,2.67,2.67,0,0,1-1-1.24,4.43,4.43,0,0,1-.34-1.74,3.84,3.84,0,0,1,.39-1.77,2.66,2.66,0,0,1,1.11-1.15,3.23,3.23,0,0,1,1.58-.39,2.66,2.66,0,0,1,1.64.5,2.58,2.58,0,0,1,.93,1.4l-0.85.2a2,2,0,0,0-.66-1,1.75,1.75,0,0,0-1.08-.32,2.1,2.1,0,0,0-1.25.36,1.9,1.9,0,0,0-.71,1,3.87,3.87,0,0,0-.2,1.25,4,4,0,0,0,.24,1.45,1.8,1.8,0,0,0,.75.93,2.11,2.11,0,0,0,1.1.31,1.85,1.85,0,0,0,1.23-.42A2.14,2.14,0,0,0,344.85,403.22Z" transform="translate(-176.03 -264.75)"/><path d="M349.76,405.5V404.8a1.73,1.73,0,0,1-1.5.8,1.89,1.89,0,0,1-.78-0.16,1.28,1.28,0,0,1-.54-0.4,1.51,1.51,0,0,1-.25-0.59,4.08,4.08,0,0,1,0-.75v-2.92h0.8v2.61a4.7,4.7,0,0,0,0,.84,0.84,0.84,0,0,0,.32.5,1,1,0,0,0,.6.18,1.32,1.32,0,0,0,.67-0.18,1,1,0,0,0,.45-0.5,2.5,2.5,0,0,0,.13-0.92v-2.53h0.8v4.71h-0.71Z" transform="translate(-176.03 -264.75)"/><path d="M351.72,405.5v-4.71h0.72v0.71a2,2,0,0,1,.51-0.66,0.89,0.89,0,0,1,.51-0.16,1.56,1.56,0,0,1,.82.26l-0.28.74a1.14,1.14,0,0,0-.59-0.17,0.76,0.76,0,0,0-.47.16,0.85,0.85,0,0,0-.3.44,3.1,3.1,0,0,0-.13.93v2.47h-0.8Z" transform="translate(-176.03 -264.75)"/><path d="M354.74,405.5v-4.71h0.72v0.71a2,2,0,0,1,.51-0.66,0.89,0.89,0,0,1,.51-0.16,1.56,1.56,0,0,1,.82.26l-0.28.74a1.14,1.14,0,0,0-.59-0.17,0.76,0.76,0,0,0-.47.16,0.85,0.85,0,0,0-.3.44,3.1,3.1,0,0,0-.13.93v2.47h-0.8Z" transform="translate(-176.03 -264.75)"/><path d="M361,404l0.83,0.1a2,2,0,0,1-.72,1.12,2.45,2.45,0,0,1-3-.24,2.49,2.49,0,0,1-.61-1.79,2.61,2.61,0,0,1,.61-1.85,2.07,2.07,0,0,1,1.59-.66,2,2,0,0,1,1.54.64,2.56,2.56,0,0,1,.6,1.81s0,0.12,0,.21h-3.52a1.81,1.81,0,0,0,.44,1.19,1.31,1.31,0,0,0,1,.41,1.22,1.22,0,0,0,.75-0.23A1.54,1.54,0,0,0,361,404Zm-2.62-1.29H361a1.6,1.6,0,0,0-.3-0.89,1.22,1.22,0,0,0-1-.46,1.27,1.27,0,0,0-.92.37A1.46,1.46,0,0,0,358.38,402.69Z" transform="translate(-176.03 -264.75)"/><path d="M362.83,405.5v-4.71h0.72v0.67a1.69,1.69,0,0,1,1.5-.78,2,2,0,0,1,.78.15,1.24,1.24,0,0,1,.54.4,1.54,1.54,0,0,1,.25.59,4.48,4.48,0,0,1,0,.78v2.9h-0.8v-2.87a2.15,2.15,0,0,0-.09-0.73,0.76,0.76,0,0,0-.33-0.39,1,1,0,0,0-.56-0.14,1.3,1.3,0,0,0-.88.32,1.6,1.6,0,0,0-.37,1.23v2.57h-0.8Z" transform="translate(-176.03 -264.75)"/><path d="M369.63,404.78l0.12,0.71a3,3,0,0,1-.6.07,1.37,1.37,0,0,1-.67-0.14,0.77,0.77,0,0,1-.34-0.36,2.85,2.85,0,0,1-.1-0.94v-2.71h-0.59v-0.62H368v-1.17l0.79-.48v1.65h0.8v0.62h-0.8v2.76a1.39,1.39,0,0,0,0,.44,0.33,0.33,0,0,0,.14.16,0.54,0.54,0,0,0,.27.06Z" transform="translate(-176.03 -264.75)"/><path d="M323.79,416.41V409.9h2.45a5.86,5.86,0,0,1,1,.06,2,2,0,0,1,.8.3,1.6,1.6,0,0,1,.52.63,2.12,2.12,0,0,1-.33,2.29,2.54,2.54,0,0,1-1.91.57h-1.67v2.65h-0.86Zm0.86-3.41h1.68a1.79,1.79,0,0,0,1.19-.31,1.11,1.11,0,0,0,.35-0.87,1.18,1.18,0,0,0-.21-0.7,1,1,0,0,0-.54-0.38,3.71,3.71,0,0,0-.8-0.06h-1.66V413Z" transform="translate(-176.03 -264.75)"/><path d="M329.74,416.41v-4.71h0.72v0.71a2,2,0,0,1,.51-0.66,0.89,0.89,0,0,1,.51-0.16,1.56,1.56,0,0,1,.82.26l-0.28.74a1.14,1.14,0,0,0-.59-0.17,0.76,0.76,0,0,0-.47.16,0.85,0.85,0,0,0-.3.44,3.1,3.1,0,0,0-.13.93v2.47h-0.8Z" transform="translate(-176.03 -264.75)"/><path d="M332.48,414a2.43,2.43,0,0,1,.73-1.94,2.19,2.19,0,0,1,1.48-.52,2.12,2.12,0,0,1,1.59.64,2.42,2.42,0,0,1,.62,1.76,3.12,3.12,0,0,1-.27,1.43,1.94,1.94,0,0,1-.79.81,2.31,2.31,0,0,1-1.14.29,2.12,2.12,0,0,1-1.6-.63A2.53,2.53,0,0,1,332.48,414Zm0.82,0a2,2,0,0,0,.39,1.36,1.32,1.32,0,0,0,2,0,2.05,2.05,0,0,0,.39-1.38,2,2,0,0,0-.4-1.32,1.32,1.32,0,0,0-2,0A2,2,0,0,0,333.3,414Z" transform="translate(-176.03 -264.75)"/><path d="M339.58,415.69l0.12,0.71a3,3,0,0,1-.6.07,1.37,1.37,0,0,1-.67-0.14,0.77,0.77,0,0,1-.34-0.36A2.85,2.85,0,0,1,338,415v-2.71H337.4v-0.62H338v-1.17l0.79-.48v1.65h0.8v0.62h-0.8v2.76a1.39,1.39,0,0,0,0,.44,0.33,0.33,0,0,0,.14.16,0.54,0.54,0,0,0,.27.06Z" transform="translate(-176.03 -264.75)"/><path d="M343.59,414.89l0.83,0.1a2,2,0,0,1-.72,1.12,2.45,2.45,0,0,1-3-.24,2.49,2.49,0,0,1-.61-1.79,2.61,2.61,0,0,1,.61-1.85,2.07,2.07,0,0,1,1.59-.66,2,2,0,0,1,1.54.64,2.56,2.56,0,0,1,.6,1.81s0,0.12,0,.21h-3.52a1.81,1.81,0,0,0,.44,1.19,1.31,1.31,0,0,0,1,.41,1.22,1.22,0,0,0,.75-0.23A1.54,1.54,0,0,0,343.59,414.89ZM341,413.6h2.63a1.6,1.6,0,0,0-.3-0.89,1.22,1.22,0,0,0-1-.46,1.27,1.27,0,0,0-.92.37A1.46,1.46,0,0,0,341,413.6Z" transform="translate(-176.03 -264.75)"/><path d="M348.49,414.68l0.79,0.1a2,2,0,0,1-.66,1.27,1.92,1.92,0,0,1-1.3.46,2,2,0,0,1-1.56-.63,2.56,2.56,0,0,1-.59-1.81,3.28,3.28,0,0,1,.25-1.34,1.76,1.76,0,0,1,.77-0.86,2.29,2.29,0,0,1,1.13-.29,2,2,0,0,1,1.26.39,1.78,1.78,0,0,1,.63,1.1l-0.78.12a1.3,1.3,0,0,0-.39-0.71,1,1,0,0,0-.68-0.24,1.24,1.24,0,0,0-1,.43A2.05,2.05,0,0,0,346,414a2.13,2.13,0,0,0,.36,1.38,1.19,1.19,0,0,0,1,.43,1.12,1.12,0,0,0,.79-0.29A1.43,1.43,0,0,0,348.49,414.68Z" transform="translate(-176.03 -264.75)"/><path d="M351.7,415.69l0.12,0.71a3,3,0,0,1-.6.07,1.37,1.37,0,0,1-.67-0.14,0.77,0.77,0,0,1-.34-0.36,2.85,2.85,0,0,1-.1-0.94v-2.71h-0.59v-0.62h0.59v-1.17l0.79-.48v1.65h0.8v0.62h-0.8v2.76a1.39,1.39,0,0,0,0,.44,0.33,0.33,0,0,0,.14.16,0.54,0.54,0,0,0,.27.06Z" transform="translate(-176.03 -264.75)"/><path d="M352.49,410.82V409.9h0.8v0.92h-0.8Zm0,5.59v-4.71h0.8v4.71h-0.8Z" transform="translate(-176.03 -264.75)"/><path d="M354.21,414a2.43,2.43,0,0,1,.73-1.94,2.19,2.19,0,0,1,1.48-.52,2.12,2.12,0,0,1,1.59.64,2.42,2.42,0,0,1,.62,1.76,3.12,3.12,0,0,1-.27,1.43,1.94,1.94,0,0,1-.79.81,2.31,2.31,0,0,1-1.14.29,2.12,2.12,0,0,1-1.6-.63A2.53,2.53,0,0,1,354.21,414Zm0.82,0a2,2,0,0,0,.39,1.36,1.32,1.32,0,0,0,2,0,2.05,2.05,0,0,0,.39-1.38,2,2,0,0,0-.4-1.32,1.32,1.32,0,0,0-2,0A2,2,0,0,0,355,414Z" transform="translate(-176.03 -264.75)"/><path d="M359.56,416.41v-4.71h0.72v0.67a1.69,1.69,0,0,1,1.5-.78,2,2,0,0,1,.78.15,1.24,1.24,0,0,1,.54.4,1.54,1.54,0,0,1,.25.59,4.48,4.48,0,0,1,0,.78v2.9h-0.8v-2.87a2.15,2.15,0,0,0-.09-0.73,0.76,0.76,0,0,0-.33-0.39,1,1,0,0,0-.56-0.14,1.3,1.3,0,0,0-.88.32,1.6,1.6,0,0,0-.37,1.23v2.57h-0.8Z" transform="translate(-176.03 -264.75)"/><polyline class="d" points="242.14 153.93 246.69 155.82 237.6 159.61 246.69 163.41 237.6 167.18 246.69 170.97 237.6 174.76 242.14 176.66 242.14 183.47"/><line class="d" x1="242.14" y1="147.11" x2="242.14" y2="153.93"/><line class="d" x1="142.15" y1="92.57" x2="178.51" y2="92.57"/><polyline class="d" points="122.58 82.84 122.58 56.21 242.14 56.21"/><line class="d" x1="242.14" y1="147.11" x2="242.14" y2="128.93"/><polyline class="d" points="242.14 147.11 242.14 138.02 201.24 138.02"/><line class="d" x1="167.15" y1="117.01" x2="167.15" y2="92.57"/><polyline class="d" points="242.14 183.47 242.14 188.02 122.58 188.02 122.58 102.31"/><polyline class="d" points="105.79 101.66 96.14 101.66 96.14 130.06 122.84 130.06"/><polyline class="d" points="105.79 83.48 55.8 83.48 55.8 101.66"/><polyline class="d" points="55.8 138.02 55.8 156.2 28.53 156.2"/><line class="d" x1="242.14" y1="78.94" x2="242.14" y2="56.21"/><path class="f" d="M297.05,394.81a1.81,1.81,0,1,1,1.82,1.82,1.81,1.81,0,0,1-1.82-1.82" transform="translate(-176.03 -264.75)"/><path class="d" d="M297.05,394.81a1.81,1.81,0,1,1,1.82,1.82A1.81,1.81,0,0,1,297.05,394.81Z" transform="translate(-176.03 -264.75)"/><path class="f" d="M416.35,402.77a1.82,1.82,0,1,1,1.82,1.82,1.82,1.82,0,0,1-1.82-1.82" transform="translate(-176.03 -264.75)"/><circle class="d" cx="242.14" cy="138.02" r="1.82"/><path class="f" d="M341.36,357.32a1.82,1.82,0,1,1,1.82,1.82,1.82,1.82,0,0,1-1.82-1.82" transform="translate(-176.03 -264.75)"/><circle class="d" cx="167.15" cy="92.57" r="1.82"/><path class="f" d="M416.35,343.68a1.82,1.82,0,1,1,1.82,1.82,1.82,1.82,0,0,1-1.82-1.82" transform="translate(-176.03 -264.75)"/><circle class="d" cx="242.14" cy="78.94" r="1.82"/><rect class="g" x="28.53" y="19.85" width="231.79" height="190.89"/><rect class="h" x="19.44" y="147.11" width="18.18" height="18.18"/><rect class="d" x="19.44" y="147.11" width="18.18" height="18.18"/><rect class="h" x="172.84" y="10.76" width="18.18" height="18.18"/><rect class="d" x="172.84" y="10.76" width="18.18" height="18.18"/><rect class="h" x="172.84" y="201.65" width="18.18" height="18.18"/><path class="d" d="M358,466.4V452.77m0-159.08V321m-9.09,163.62H367V466.4H348.87v18.18Z" transform="translate(-176.03 -264.75)"/><path class="f" d="M356.13,321a1.82,1.82,0,1,1,1.83,1.82,1.83,1.83,0,0,1-1.83-1.82" transform="translate(-176.03 -264.75)"/><path class="d" d="M356.13,321a1.82,1.82,0,1,1,1.83,1.82A1.83,1.83,0,0,1,356.13,321Z" transform="translate(-176.03 -264.75)"/><path class="f" d="M356.13,452.77a1.82,1.82,0,1,1,1.83,1.82,1.83,1.83,0,0,1-1.83-1.82" transform="translate(-176.03 -264.75)"/><path class="d" d="M356.13,452.77a1.82,1.82,0,1,1,1.83,1.82A1.83,1.83,0,0,1,356.13,452.77Z" transform="translate(-176.03 -264.75)"/><path d="M349.1,272v-7.23h1V272h-1Z" transform="translate(-176.03 -264.75)"/><path d="M351.37,272v-5.24h0.8v0.74a1.88,1.88,0,0,1,1.67-.86,2.19,2.19,0,0,1,.87.17,1.37,1.37,0,0,1,.59.45,1.73,1.73,0,0,1,.28.66,5,5,0,0,1,0,.86V272h-0.89v-3.19a2.38,2.38,0,0,0-.1-0.81,0.86,0.86,0,0,0-.37-0.43,1.18,1.18,0,0,0-.62-0.16,1.44,1.44,0,0,0-1,.36,1.78,1.78,0,0,0-.41,1.37V272h-0.89Z" transform="translate(-176.03 -264.75)"/><path d="M357,274v-7.24h0.81v0.68a2,2,0,0,1,.65-0.6,1.78,1.78,0,0,1,.87-0.2,2.07,2.07,0,0,1,1.18.35,2.12,2.12,0,0,1,.77,1,3.55,3.55,0,0,1,.26,1.38,3.5,3.5,0,0,1-.29,1.45,2.19,2.19,0,0,1-2,1.33,1.68,1.68,0,0,1-.8-0.19,1.81,1.81,0,0,1-.58-0.47V274H357Zm0.8-4.6a2.28,2.28,0,0,0,.41,1.49,1.25,1.25,0,0,0,1,.48,1.28,1.28,0,0,0,1-.5,2.37,2.37,0,0,0,.42-1.55,2.31,2.31,0,0,0-.41-1.5,1.24,1.24,0,0,0-1-.5,1.28,1.28,0,0,0-1,.53A2.37,2.37,0,0,0,357.79,269.39Z" transform="translate(-176.03 -264.75)"/><path d="M366,272v-0.77a1.92,1.92,0,0,1-1.66.89,2.12,2.12,0,0,1-.87-0.18,1.43,1.43,0,0,1-.6-0.45,1.68,1.68,0,0,1-.27-0.66,4.52,4.52,0,0,1-.05-0.83v-3.25h0.89v2.9a5.2,5.2,0,0,0,.05.94,0.92,0.92,0,0,0,.36.55,1.1,1.1,0,0,0,.67.2,1.46,1.46,0,0,0,.75-0.2,1.14,1.14,0,0,0,.5-0.56,2.8,2.8,0,0,0,.15-1v-2.81h0.89V272H366Z" transform="translate(-176.03 -264.75)"/><path d="M370.16,271.18l0.13,0.78a3.32,3.32,0,0,1-.67.08,1.52,1.52,0,0,1-.75-0.15,0.86,0.86,0,0,1-.37-0.4,3.18,3.18,0,0,1-.11-1v-3h-0.65v-0.69h0.65v-1.3l0.88-.53v1.83h0.89v0.69h-0.89v3.06a1.55,1.55,0,0,0,0,.49,0.37,0.37,0,0,0,.15.17,0.59,0.59,0,0,0,.3.06Z" transform="translate(-176.03 -264.75)"/><path d="M176,424.23l2.78-7.23h1l3,7.23h-1.09L180.86,422h-3L177,424.23h-1Zm2.09-3h2.45l-0.75-2q-0.34-.91-0.51-1.5a9.23,9.23,0,0,1-.39,1.38Z" transform="translate(-176.03 -264.75)"/><path d="M186,424.23v-0.66a1.63,1.63,0,0,1-1.46.78,2.06,2.06,0,0,1-1.15-.34,2.27,2.27,0,0,1-.81-1,3.33,3.33,0,0,1-.29-1.42,3.72,3.72,0,0,1,.26-1.42,2.06,2.06,0,0,1,.78-1,2.1,2.1,0,0,1,1.17-.34,1.74,1.74,0,0,1,1.44.72V417h0.88v7.23H186Zm-2.81-2.61a2.28,2.28,0,0,0,.42,1.5,1.28,1.28,0,0,0,1,.5,1.26,1.26,0,0,0,1-.48,2.19,2.19,0,0,0,.41-1.45,2.46,2.46,0,0,0-.41-1.58,1.27,1.27,0,0,0-1-.5,1.23,1.23,0,0,0-1,.48A2.38,2.38,0,0,0,183.15,421.62Z" transform="translate(-176.03 -264.75)"/><path d="M187,426.26l0.17-.75a1.8,1.8,0,0,0,.42.07,0.47,0.47,0,0,0,.4-0.18,1.84,1.84,0,0,0,.13-0.9V419h0.89v5.52a2.59,2.59,0,0,1-.25,1.35,1.17,1.17,0,0,1-1.06.49A2.61,2.61,0,0,1,187,426.26Zm1.12-8.23v-1h0.89v1h-0.89Z" transform="translate(-176.03 -264.75)"/><path d="M190.67,424.23v-1h1v1h-1Z" transform="translate(-176.03 -264.75)"/><path d="M344.89,491.16a3.93,3.93,0,0,1,1-2.82,3.29,3.29,0,0,1,2.5-1,3.47,3.47,0,0,1,1.8.48,3.13,3.13,0,0,1,1.23,1.33,4.33,4.33,0,0,1,.42,1.94,4.26,4.26,0,0,1-.44,2,3,3,0,0,1-1.26,1.31,3.59,3.59,0,0,1-1.76.45,3.42,3.42,0,0,1-1.83-.49A3.18,3.18,0,0,1,345.3,493,4.08,4.08,0,0,1,344.89,491.16Zm1,0a2.9,2.9,0,0,0,.7,2.06,2.45,2.45,0,0,0,3.54,0,3.07,3.07,0,0,0,.7-2.16,3.7,3.7,0,0,0-.3-1.54,2.29,2.29,0,0,0-.87-1,2.37,2.37,0,0,0-1.29-.36,2.45,2.45,0,0,0-1.75.7A3.12,3.12,0,0,0,345.88,491.17Z" transform="translate(-176.03 -264.75)"/><path d="M356.36,494.68v-0.77a1.92,1.92,0,0,1-1.66.89,2.11,2.11,0,0,1-.87-0.18,1.42,1.42,0,0,1-.6-0.45,1.67,1.67,0,0,1-.27-0.66,4.52,4.52,0,0,1-.05-0.83v-3.25h0.89v2.9a5.2,5.2,0,0,0,.05.94,0.92,0.92,0,0,0,.36.55,1.1,1.1,0,0,0,.67.2,1.46,1.46,0,0,0,.75-0.2,1.14,1.14,0,0,0,.5-0.56,2.8,2.8,0,0,0,.15-1v-2.81h0.89v5.24h-0.79Z" transform="translate(-176.03 -264.75)"/><path d="M360.48,493.89l0.13,0.78a3.29,3.29,0,0,1-.67.08,1.52,1.52,0,0,1-.75-0.15,0.86,0.86,0,0,1-.37-0.4,3.18,3.18,0,0,1-.11-1v-3h-0.65v-0.69h0.65v-1.3l0.88-.53v1.83h0.89v0.69h-0.89v3.06a1.55,1.55,0,0,0,0,.49,0.37,0.37,0,0,0,.15.17,0.6,0.6,0,0,0,.3.06Z" transform="translate(-176.03 -264.75)"/><path d="M361.35,496.69v-7.24h0.81v0.68a2,2,0,0,1,.65-0.6,1.78,1.78,0,0,1,.87-0.2,2.07,2.07,0,0,1,1.18.34,2.12,2.12,0,0,1,.77,1,3.54,3.54,0,0,1,.26,1.38,3.5,3.5,0,0,1-.29,1.45,2.19,2.19,0,0,1-2,1.33,1.67,1.67,0,0,1-.8-0.19,1.81,1.81,0,0,1-.58-0.47v2.55h-0.89Zm0.8-4.6a2.28,2.28,0,0,0,.41,1.49,1.25,1.25,0,0,0,1,.48,1.28,1.28,0,0,0,1-.5A2.37,2.37,0,0,0,365,492a2.31,2.31,0,0,0-.41-1.5,1.24,1.24,0,0,0-1-.5,1.28,1.28,0,0,0-1,.53A2.37,2.37,0,0,0,362.15,492.09Z" transform="translate(-176.03 -264.75)"/><path d="M370.4,494.68v-0.77a1.92,1.92,0,0,1-1.66.89,2.11,2.11,0,0,1-.87-0.18,1.42,1.42,0,0,1-.6-0.45,1.67,1.67,0,0,1-.27-0.66,4.52,4.52,0,0,1-.05-0.83v-3.25h0.89v2.9a5.2,5.2,0,0,0,.05.94,0.92,0.92,0,0,0,.36.55,1.1,1.1,0,0,0,.67.2,1.46,1.46,0,0,0,.75-0.2,1.14,1.14,0,0,0,.5-0.56,2.8,2.8,0,0,0,.15-1v-2.81h0.89v5.24H370.4Z" transform="translate(-176.03 -264.75)"/><path d="M374.52,493.89l0.13,0.78a3.29,3.29,0,0,1-.67.08,1.52,1.52,0,0,1-.75-0.15,0.86,0.86,0,0,1-.37-0.4,3.18,3.18,0,0,1-.11-1v-3h-0.65v-0.69h0.65v-1.3l0.88-.53v1.83h0.89v0.69h-0.89v3.06a1.55,1.55,0,0,0,0,.49,0.37,0.37,0,0,0,.15.17,0.6,0.6,0,0,0,.3.06Z" transform="translate(-176.03 -264.75)"/><path d="M242,376.51h-0.89v-5.66a4.58,4.58,0,0,1-.84.61,6,6,0,0,1-.93.46v-0.86a5.36,5.36,0,0,0,1.3-.85,3.35,3.35,0,0,0,.79-1H242v7.26Z" transform="translate(-176.03 -264.75)"/><path d="M244.72,376.51v-1h1v1h-1Z" transform="translate(-176.03 -264.75)"/><path d="M251.7,375.66v0.85h-4.78a1.57,1.57,0,0,1,.1-0.62,3.25,3.25,0,0,1,.58-1,9.17,9.17,0,0,1,1.16-1.09,9.86,9.86,0,0,0,1.59-1.53,1.83,1.83,0,0,0,.41-1.07,1.19,1.19,0,0,0-.38-0.89,1.36,1.36,0,0,0-1-.36,1.38,1.38,0,0,0-1,.38,1.46,1.46,0,0,0-.39,1.06l-0.91-.09a2.24,2.24,0,0,1,.71-1.56,2.4,2.4,0,0,1,1.64-.54,2.29,2.29,0,0,1,1.65.58,1.89,1.89,0,0,1,.61,1.43,2.16,2.16,0,0,1-.18.85,3.31,3.31,0,0,1-.59.88,14.39,14.39,0,0,1-1.37,1.27q-0.8.67-1,.91a2.92,2.92,0,0,0-.37.48h3.55Z" transform="translate(-176.03 -264.75)"/><path d="M252.65,374.62l0.93-.08a1.67,1.67,0,0,0,.48,1,1.31,1.31,0,0,0,.91.34,1.42,1.42,0,0,0,1.08-.48,1.82,1.82,0,0,0,.44-1.28,1.65,1.65,0,0,0-.43-1.2,1.49,1.49,0,0,0-1.12-.44,1.55,1.55,0,0,0-.77.19,1.5,1.5,0,0,0-.54.51l-0.83-.11,0.7-3.71h3.6v0.85h-2.89l-0.39,1.94a2.36,2.36,0,0,1,1.37-.45,2.16,2.16,0,0,1,1.6.66,2.29,2.29,0,0,1,.65,1.69,2.63,2.63,0,0,1-.57,1.7,2.29,2.29,0,0,1-1.9.88,2.34,2.34,0,0,1-1.61-.55A2.16,2.16,0,0,1,252.65,374.62Z" transform="translate(-176.03 -264.75)"/><path d="M263.5,376.51l-2.8-7.23h1l1.88,5.25q0.23,0.63.38,1.18,0.17-.59.39-1.18l2-5.25h1l-2.83,7.23h-1Z" transform="translate(-176.03 -264.75)"/><circle class="d" cx="82.16" cy="56.21" r="13.64"/><line class="d" x1="101.25" y1="56.21" x2="95.79" y2="56.21"/><line class="d" x1="68.52" y1="56.21" x2="63.07" y2="56.21"/><polyline class="f" points="80.79 60.94 72.61 56.21 80.79 51.49 80.79 60.94"/><polygon class="i" points="80.79 60.94 72.61 56.21 80.79 51.49 80.79 60.94"/><line class="d" x1="90.34" y1="56.21" x2="78.07" y2="56.21"/><polyline class="d" points="63.07 56.21 55.8 56.21 55.8 83.48"/><line class="d" x1="101.14" y1="56.21" x2="122.84" y2="56.21"/><path class="f" d="M297.05,321a1.81,1.81,0,1,1,1.82,1.82,1.82,1.82,0,0,1-1.82-1.82" transform="translate(-176.03 -264.75)"/><path class="d" d="M297.05,321a1.81,1.81,0,1,1,1.82,1.82A1.82,1.82,0,0,1,297.05,321Z" transform="translate(-176.03 -264.75)"/><path d="M255.82,303.79v-7.23h1v7.23h-1Z" transform="translate(-176.03 -264.75)"/><path d="M260.07,304.81a2.15,2.15,0,0,1-.62.38,1.78,1.78,0,0,1-.64.11A1.24,1.24,0,0,1,258,305a0.9,0.9,0,0,1-.3-0.7,0.93,0.93,0,0,1,.11-0.46,1,1,0,0,1,.3-0.33,1.42,1.42,0,0,1,.42-0.19,4.16,4.16,0,0,1,.51-0.09,5.29,5.29,0,0,0,1-.2c0-.08,0-0.13,0-0.15a0.64,0.64,0,0,0-.16-0.5,1,1,0,0,0-.66-0.2,1,1,0,0,0-.6.14,0.87,0.87,0,0,0-.29.5l-0.56-.08a1.4,1.4,0,0,1,.25-0.58,1.11,1.11,0,0,1,.51-0.34,2.28,2.28,0,0,1,.77-0.12,2,2,0,0,1,.71.1,0.93,0.93,0,0,1,.4.26,0.91,0.91,0,0,1,.18.39,3.27,3.27,0,0,1,0,.53v0.77a8.08,8.08,0,0,0,0,1,1.28,1.28,0,0,0,.15.41h-0.6A1.23,1.23,0,0,1,260.07,304.81Zm0-1.29a4.21,4.21,0,0,1-.94.22,2.19,2.19,0,0,0-.5.12,0.5,0.5,0,0,0-.23.19,0.51,0.51,0,0,0,.09.66,0.75,0.75,0,0,0,.51.15,1.18,1.18,0,0,0,.59-0.15,0.9,0.9,0,0,0,.38-0.4,1.39,1.39,0,0,0,.09-0.58v-0.21Z" transform="translate(-176.03 -264.75)"/><path d="M263.71,305.23V304.8a1.06,1.06,0,0,1-1,.51,1.34,1.34,0,0,1-.75-0.22,1.47,1.47,0,0,1-.53-0.63,2.17,2.17,0,0,1-.19-0.92,2.42,2.42,0,0,1,.17-0.92A1.34,1.34,0,0,1,262,302a1.36,1.36,0,0,1,.76-0.22,1.14,1.14,0,0,1,.55.13,1.16,1.16,0,0,1,.39.34v-1.69h0.57v4.7h-0.54Zm-1.82-1.7a1.48,1.48,0,0,0,.28,1,0.83,0.83,0,0,0,.65.32,0.82,0.82,0,0,0,.64-0.31,1.43,1.43,0,0,0,.26-0.94,1.6,1.6,0,0,0-.27-1,0.83,0.83,0,0,0-.66-0.33,0.8,0.8,0,0,0-.64.31A1.55,1.55,0,0,0,261.89,303.54Z" transform="translate(-176.03 -264.75)"/><path d="M264.42,306.55l0.11-.49a1.16,1.16,0,0,0,.27,0,0.3,0.3,0,0,0,.26-0.12,1.19,1.19,0,0,0,.09-0.58v-3.58h0.58v3.59a1.69,1.69,0,0,1-.16.88,0.76,0.76,0,0,1-.69.32A1.68,1.68,0,0,1,264.42,306.55Zm0.73-5.35v-0.67h0.58v0.67h-0.58Z" transform="translate(-176.03 -264.75)"/></g></svg>